<mxfile host="app.diagrams.net" agent="Mozilla/5.0 (Windows NT 10.0; Win64; x64) AppleWebKit/537.36 (KHTML, like Gecko) Chrome/131.0.0.0 Safari/537.36" version="24.8.6">
  <diagram name="Страница — 1" id="6xXkJkRRRqOf_YEWVa_d">
    <mxGraphModel dx="756" dy="410" grid="1" gridSize="10" guides="1" tooltips="1" connect="1" arrows="1" fold="1" page="1" pageScale="1" pageWidth="827" pageHeight="1169" math="0" shadow="0">
      <root>
        <mxCell id="0" />
        <mxCell id="1" parent="0" />
        <mxCell id="rCTuz_Q_YtmbwdRgpNt7-6" style="edgeStyle=orthogonalEdgeStyle;rounded=0;orthogonalLoop=1;jettySize=auto;html=1;curved=0;" edge="1" parent="1" target="rCTuz_Q_YtmbwdRgpNt7-5">
          <mxGeometry relative="1" as="geometry">
            <mxPoint x="129.5" y="130" as="sourcePoint" />
            <mxPoint x="379.5" y="120" as="targetPoint" />
            <Array as="points">
              <mxPoint x="130" y="131" />
            </Array>
          </mxGeometry>
        </mxCell>
        <mxCell id="rCTuz_Q_YtmbwdRgpNt7-17" style="edgeStyle=orthogonalEdgeStyle;rounded=0;orthogonalLoop=1;jettySize=auto;html=1;curved=0;entryX=0.538;entryY=0.802;entryDx=0;entryDy=0;entryPerimeter=0;" edge="1" parent="1">
          <mxGeometry relative="1" as="geometry">
            <mxPoint x="130" y="266" as="sourcePoint" />
            <mxPoint x="383.79999999999995" y="266.6" as="targetPoint" />
            <Array as="points" />
          </mxGeometry>
        </mxCell>
        <mxCell id="rCTuz_Q_YtmbwdRgpNt7-18" value="Добавление в корзину" style="edgeLabel;html=1;align=center;verticalAlign=middle;resizable=0;points=[];" vertex="1" connectable="0" parent="rCTuz_Q_YtmbwdRgpNt7-17">
          <mxGeometry x="-0.1749" y="4" relative="1" as="geometry">
            <mxPoint as="offset" />
          </mxGeometry>
        </mxCell>
        <mxCell id="rCTuz_Q_YtmbwdRgpNt7-35" style="edgeStyle=orthogonalEdgeStyle;rounded=0;orthogonalLoop=1;jettySize=auto;html=1;curved=0;" edge="1" parent="1" source="rCTuz_Q_YtmbwdRgpNt7-2">
          <mxGeometry relative="1" as="geometry">
            <mxPoint x="129.5" y="470" as="sourcePoint" />
            <mxPoint x="379.5" y="470" as="targetPoint" />
            <Array as="points">
              <mxPoint x="255" y="470" />
              <mxPoint x="255" y="471" />
            </Array>
          </mxGeometry>
        </mxCell>
        <mxCell id="rCTuz_Q_YtmbwdRgpNt7-36" value="online оплата" style="edgeLabel;html=1;align=center;verticalAlign=middle;resizable=0;points=[];" vertex="1" connectable="0" parent="rCTuz_Q_YtmbwdRgpNt7-35">
          <mxGeometry x="-0.2395" y="1" relative="1" as="geometry">
            <mxPoint x="26" as="offset" />
          </mxGeometry>
        </mxCell>
        <mxCell id="rCTuz_Q_YtmbwdRgpNt7-2" value="" style="shape=umlLifeline;perimeter=lifelinePerimeter;whiteSpace=wrap;html=1;container=1;dropTarget=0;collapsible=0;recursiveResize=0;outlineConnect=0;portConstraint=eastwest;newEdgeStyle={&quot;curved&quot;:0,&quot;rounded&quot;:0};participant=umlActor;" vertex="1" parent="1">
          <mxGeometry x="110" y="70" width="25" height="920" as="geometry" />
        </mxCell>
        <mxCell id="rCTuz_Q_YtmbwdRgpNt7-24" value="" style="html=1;points=[[0,0,0,0,5],[0,1,0,0,-5],[1,0,0,0,5],[1,1,0,0,-5]];perimeter=orthogonalPerimeter;outlineConnect=0;targetShapes=umlLifeline;portConstraint=eastwest;newEdgeStyle={&quot;curved&quot;:0,&quot;rounded&quot;:0};" vertex="1" parent="rCTuz_Q_YtmbwdRgpNt7-2">
          <mxGeometry x="5" y="60" width="10" height="90" as="geometry" />
        </mxCell>
        <mxCell id="rCTuz_Q_YtmbwdRgpNt7-60" value="" style="shape=umlDestroy;whiteSpace=wrap;html=1;strokeWidth=3;targetShapes=umlLifeline;" vertex="1" parent="rCTuz_Q_YtmbwdRgpNt7-2">
          <mxGeometry x="-5" y="890" width="30" height="30" as="geometry" />
        </mxCell>
        <mxCell id="rCTuz_Q_YtmbwdRgpNt7-26" style="edgeStyle=orthogonalEdgeStyle;rounded=0;orthogonalLoop=1;jettySize=auto;html=1;curved=0;dashed=1;" edge="1" parent="1">
          <mxGeometry relative="1" as="geometry">
            <mxPoint x="569.5" y="329.5" as="sourcePoint" />
            <mxPoint x="379.5" y="330.5" as="targetPoint" />
            <Array as="points">
              <mxPoint x="570" y="330.5" />
            </Array>
          </mxGeometry>
        </mxCell>
        <mxCell id="rCTuz_Q_YtmbwdRgpNt7-29" value="Товар в наличии" style="edgeLabel;html=1;align=center;verticalAlign=middle;resizable=0;points=[];" vertex="1" connectable="0" parent="rCTuz_Q_YtmbwdRgpNt7-26">
          <mxGeometry x="0.0351" y="3" relative="1" as="geometry">
            <mxPoint as="offset" />
          </mxGeometry>
        </mxCell>
        <mxCell id="rCTuz_Q_YtmbwdRgpNt7-30" style="edgeStyle=orthogonalEdgeStyle;rounded=0;orthogonalLoop=1;jettySize=auto;html=1;curved=0;dashed=1;" edge="1" parent="1" target="rCTuz_Q_YtmbwdRgpNt7-5">
          <mxGeometry relative="1" as="geometry">
            <mxPoint x="569.5" y="380" as="sourcePoint" />
            <mxPoint x="379.5" y="370" as="targetPoint" />
            <Array as="points">
              <mxPoint x="570" y="381" />
              <mxPoint x="475" y="381" />
              <mxPoint x="475" y="380" />
            </Array>
          </mxGeometry>
        </mxCell>
        <mxCell id="rCTuz_Q_YtmbwdRgpNt7-31" value="Товар отсутствует" style="edgeLabel;html=1;align=center;verticalAlign=middle;resizable=0;points=[];" vertex="1" connectable="0" parent="rCTuz_Q_YtmbwdRgpNt7-30">
          <mxGeometry x="0.2659" y="-4" relative="1" as="geometry">
            <mxPoint x="27" as="offset" />
          </mxGeometry>
        </mxCell>
        <mxCell id="rCTuz_Q_YtmbwdRgpNt7-3" value="Склад" style="shape=umlLifeline;perimeter=lifelinePerimeter;whiteSpace=wrap;html=1;container=1;dropTarget=0;collapsible=0;recursiveResize=0;outlineConnect=0;portConstraint=eastwest;newEdgeStyle={&quot;curved&quot;:0,&quot;rounded&quot;:0};" vertex="1" parent="1">
          <mxGeometry x="520" y="60" width="100" height="940" as="geometry" />
        </mxCell>
        <mxCell id="rCTuz_Q_YtmbwdRgpNt7-63" value="" style="shape=umlDestroy;whiteSpace=wrap;html=1;strokeWidth=3;targetShapes=umlLifeline;" vertex="1" parent="rCTuz_Q_YtmbwdRgpNt7-3">
          <mxGeometry x="35" y="910" width="30" height="30" as="geometry" />
        </mxCell>
        <mxCell id="rCTuz_Q_YtmbwdRgpNt7-50" style="edgeStyle=orthogonalEdgeStyle;rounded=0;orthogonalLoop=1;jettySize=auto;html=1;curved=0;dashed=1;" edge="1" parent="1" source="rCTuz_Q_YtmbwdRgpNt7-4" target="rCTuz_Q_YtmbwdRgpNt7-5">
          <mxGeometry relative="1" as="geometry">
            <Array as="points">
              <mxPoint x="480" y="780" />
              <mxPoint x="480" y="780" />
            </Array>
          </mxGeometry>
        </mxCell>
        <mxCell id="rCTuz_Q_YtmbwdRgpNt7-51" value="Деньги были списаны" style="edgeLabel;html=1;align=center;verticalAlign=middle;resizable=0;points=[];" vertex="1" connectable="0" parent="rCTuz_Q_YtmbwdRgpNt7-50">
          <mxGeometry x="-0.1907" y="2" relative="1" as="geometry">
            <mxPoint x="-35" y="-2" as="offset" />
          </mxGeometry>
        </mxCell>
        <mxCell id="rCTuz_Q_YtmbwdRgpNt7-4" value="Платежный шлюз" style="shape=umlLifeline;perimeter=lifelinePerimeter;whiteSpace=wrap;html=1;container=1;dropTarget=0;collapsible=0;recursiveResize=0;outlineConnect=0;portConstraint=eastwest;newEdgeStyle={&quot;curved&quot;:0,&quot;rounded&quot;:0};" vertex="1" parent="1">
          <mxGeometry x="710" y="430" width="100" height="560" as="geometry" />
        </mxCell>
        <mxCell id="rCTuz_Q_YtmbwdRgpNt7-44" value="" style="html=1;points=[[0,0,0,0,5],[0,1,0,0,-5],[1,0,0,0,5],[1,1,0,0,-5]];perimeter=orthogonalPerimeter;outlineConnect=0;targetShapes=umlLifeline;portConstraint=eastwest;newEdgeStyle={&quot;curved&quot;:0,&quot;rounded&quot;:0};" vertex="1" parent="rCTuz_Q_YtmbwdRgpNt7-4">
          <mxGeometry x="44" y="200" width="10" height="40" as="geometry" />
        </mxCell>
        <mxCell id="rCTuz_Q_YtmbwdRgpNt7-45" value="Валидация" style="html=1;align=left;spacingLeft=2;endArrow=block;rounded=0;edgeStyle=orthogonalEdgeStyle;curved=0;rounded=0;" edge="1" target="rCTuz_Q_YtmbwdRgpNt7-44" parent="rCTuz_Q_YtmbwdRgpNt7-4">
          <mxGeometry relative="1" as="geometry">
            <mxPoint x="49" y="180" as="sourcePoint" />
            <Array as="points">
              <mxPoint x="79" y="210" />
            </Array>
          </mxGeometry>
        </mxCell>
        <mxCell id="rCTuz_Q_YtmbwdRgpNt7-48" value="" style="html=1;points=[[0,0,0,0,5],[0,1,0,0,-5],[1,0,0,0,5],[1,1,0,0,-5]];perimeter=orthogonalPerimeter;outlineConnect=0;targetShapes=umlLifeline;portConstraint=eastwest;newEdgeStyle={&quot;curved&quot;:0,&quot;rounded&quot;:0};" vertex="1" parent="rCTuz_Q_YtmbwdRgpNt7-4">
          <mxGeometry x="45" y="280" width="10" height="40" as="geometry" />
        </mxCell>
        <mxCell id="rCTuz_Q_YtmbwdRgpNt7-49" value="Формирование&lt;div&gt;платежа&lt;/div&gt;" style="html=1;align=left;spacingLeft=2;endArrow=block;rounded=0;edgeStyle=orthogonalEdgeStyle;curved=0;rounded=0;" edge="1" target="rCTuz_Q_YtmbwdRgpNt7-48" parent="rCTuz_Q_YtmbwdRgpNt7-4">
          <mxGeometry relative="1" as="geometry">
            <mxPoint x="50" y="260" as="sourcePoint" />
            <Array as="points">
              <mxPoint x="80" y="290" />
            </Array>
          </mxGeometry>
        </mxCell>
        <mxCell id="rCTuz_Q_YtmbwdRgpNt7-64" value="" style="shape=umlDestroy;whiteSpace=wrap;html=1;strokeWidth=3;targetShapes=umlLifeline;" vertex="1" parent="rCTuz_Q_YtmbwdRgpNt7-4">
          <mxGeometry x="34" y="530" width="30" height="30" as="geometry" />
        </mxCell>
        <mxCell id="rCTuz_Q_YtmbwdRgpNt7-10" style="edgeStyle=orthogonalEdgeStyle;rounded=0;orthogonalLoop=1;jettySize=auto;html=1;curved=0;dashed=1;" edge="1" parent="1">
          <mxGeometry relative="1" as="geometry">
            <mxPoint x="380" y="215" as="sourcePoint" />
            <mxPoint x="129.5" y="215" as="targetPoint" />
          </mxGeometry>
        </mxCell>
        <mxCell id="rCTuz_Q_YtmbwdRgpNt7-16" value="&lt;span style=&quot;font-size: 12px; background-color: rgb(251, 251, 251);&quot;&gt;Авторизация прошла успешно&lt;/span&gt;" style="edgeLabel;html=1;align=center;verticalAlign=middle;resizable=0;points=[];" vertex="1" connectable="0" parent="rCTuz_Q_YtmbwdRgpNt7-10">
          <mxGeometry x="0.0966" y="3" relative="1" as="geometry">
            <mxPoint y="-3" as="offset" />
          </mxGeometry>
        </mxCell>
        <mxCell id="rCTuz_Q_YtmbwdRgpNt7-19" style="edgeStyle=orthogonalEdgeStyle;rounded=0;orthogonalLoop=1;jettySize=auto;html=1;curved=0;dashed=1;" edge="1" parent="1">
          <mxGeometry relative="1" as="geometry">
            <mxPoint x="379.5" y="345" as="sourcePoint" />
            <mxPoint x="130" y="345" as="targetPoint" />
          </mxGeometry>
        </mxCell>
        <mxCell id="rCTuz_Q_YtmbwdRgpNt7-21" value="Товар добавлен" style="edgeLabel;html=1;align=center;verticalAlign=middle;resizable=0;points=[];" vertex="1" connectable="0" parent="rCTuz_Q_YtmbwdRgpNt7-19">
          <mxGeometry x="0.2734" y="-3" relative="1" as="geometry">
            <mxPoint x="25" as="offset" />
          </mxGeometry>
        </mxCell>
        <mxCell id="rCTuz_Q_YtmbwdRgpNt7-22" style="edgeStyle=orthogonalEdgeStyle;rounded=0;orthogonalLoop=1;jettySize=auto;html=1;curved=0;" edge="1" parent="1">
          <mxGeometry relative="1" as="geometry">
            <mxPoint x="379.5" y="283" as="sourcePoint" />
            <mxPoint x="569.5" y="283" as="targetPoint" />
            <Array as="points">
              <mxPoint x="380" y="284" />
              <mxPoint x="435" y="284" />
              <mxPoint x="435" y="283" />
            </Array>
          </mxGeometry>
        </mxCell>
        <mxCell id="rCTuz_Q_YtmbwdRgpNt7-23" value="Проверка наличия товара" style="edgeLabel;html=1;align=center;verticalAlign=middle;resizable=0;points=[];" vertex="1" connectable="0" parent="rCTuz_Q_YtmbwdRgpNt7-22">
          <mxGeometry x="-0.5043" y="1" relative="1" as="geometry">
            <mxPoint x="42" as="offset" />
          </mxGeometry>
        </mxCell>
        <mxCell id="rCTuz_Q_YtmbwdRgpNt7-32" style="edgeStyle=orthogonalEdgeStyle;rounded=0;orthogonalLoop=1;jettySize=auto;html=1;curved=0;dashed=1;" edge="1" parent="1">
          <mxGeometry relative="1" as="geometry">
            <mxPoint x="379.5" y="400" as="sourcePoint" />
            <mxPoint x="129.5" y="400" as="targetPoint" />
          </mxGeometry>
        </mxCell>
        <mxCell id="rCTuz_Q_YtmbwdRgpNt7-33" value="Товар не добавлен в корзину" style="edgeLabel;html=1;align=center;verticalAlign=middle;resizable=0;points=[];" vertex="1" connectable="0" parent="rCTuz_Q_YtmbwdRgpNt7-32">
          <mxGeometry x="0.3508" relative="1" as="geometry">
            <mxPoint x="50" as="offset" />
          </mxGeometry>
        </mxCell>
        <mxCell id="rCTuz_Q_YtmbwdRgpNt7-37" style="edgeStyle=orthogonalEdgeStyle;rounded=0;orthogonalLoop=1;jettySize=auto;html=1;curved=0;dashed=1;" edge="1" parent="1" source="rCTuz_Q_YtmbwdRgpNt7-5" target="rCTuz_Q_YtmbwdRgpNt7-2">
          <mxGeometry relative="1" as="geometry">
            <Array as="points">
              <mxPoint x="240" y="510" />
              <mxPoint x="240" y="510" />
            </Array>
          </mxGeometry>
        </mxCell>
        <mxCell id="rCTuz_Q_YtmbwdRgpNt7-38" value="Форма для заполнения" style="edgeLabel;html=1;align=center;verticalAlign=middle;resizable=0;points=[];" vertex="1" connectable="0" parent="rCTuz_Q_YtmbwdRgpNt7-37">
          <mxGeometry x="0.2457" y="-2" relative="1" as="geometry">
            <mxPoint x="24" as="offset" />
          </mxGeometry>
        </mxCell>
        <mxCell id="rCTuz_Q_YtmbwdRgpNt7-41" style="edgeStyle=orthogonalEdgeStyle;rounded=0;orthogonalLoop=1;jettySize=auto;html=1;curved=0;dashed=1;" edge="1" parent="1">
          <mxGeometry relative="1" as="geometry">
            <mxPoint x="379.5" y="603" as="sourcePoint" />
            <mxPoint x="759.5" y="603" as="targetPoint" />
            <Array as="points">
              <mxPoint x="450" y="603" />
              <mxPoint x="450" y="603" />
            </Array>
          </mxGeometry>
        </mxCell>
        <mxCell id="rCTuz_Q_YtmbwdRgpNt7-42" value="Оплата" style="edgeLabel;html=1;align=center;verticalAlign=middle;resizable=0;points=[];" vertex="1" connectable="0" parent="rCTuz_Q_YtmbwdRgpNt7-41">
          <mxGeometry x="-0.6102" relative="1" as="geometry">
            <mxPoint as="offset" />
          </mxGeometry>
        </mxCell>
        <mxCell id="rCTuz_Q_YtmbwdRgpNt7-52" style="edgeStyle=orthogonalEdgeStyle;rounded=0;orthogonalLoop=1;jettySize=auto;html=1;curved=0;dashed=1;" edge="1" parent="1" target="rCTuz_Q_YtmbwdRgpNt7-2">
          <mxGeometry relative="1" as="geometry">
            <mxPoint x="379.5" y="805" as="sourcePoint" />
            <mxPoint x="119.5" y="800" as="targetPoint" />
            <Array as="points">
              <mxPoint x="380" y="806" />
            </Array>
          </mxGeometry>
        </mxCell>
        <mxCell id="rCTuz_Q_YtmbwdRgpNt7-53" value="Платеж успешно совершен" style="edgeLabel;html=1;align=center;verticalAlign=middle;resizable=0;points=[];" vertex="1" connectable="0" parent="rCTuz_Q_YtmbwdRgpNt7-52">
          <mxGeometry x="0.2068" y="-2" relative="1" as="geometry">
            <mxPoint x="25" as="offset" />
          </mxGeometry>
        </mxCell>
        <mxCell id="rCTuz_Q_YtmbwdRgpNt7-5" value="Система" style="shape=umlLifeline;perimeter=lifelinePerimeter;whiteSpace=wrap;html=1;container=1;dropTarget=0;collapsible=0;recursiveResize=0;outlineConnect=0;portConstraint=eastwest;newEdgeStyle={&quot;curved&quot;:0,&quot;rounded&quot;:0};" vertex="1" parent="1">
          <mxGeometry x="330" y="60" width="100" height="930" as="geometry" />
        </mxCell>
        <mxCell id="rCTuz_Q_YtmbwdRgpNt7-14" value="" style="html=1;points=[[0,0,0,0,5],[0,1,0,0,-5],[1,0,0,0,5],[1,1,0,0,-5]];perimeter=orthogonalPerimeter;outlineConnect=0;targetShapes=umlLifeline;portConstraint=eastwest;newEdgeStyle={&quot;curved&quot;:0,&quot;rounded&quot;:0};" vertex="1" parent="rCTuz_Q_YtmbwdRgpNt7-5">
          <mxGeometry x="44" y="99" width="10" height="40" as="geometry" />
        </mxCell>
        <mxCell id="rCTuz_Q_YtmbwdRgpNt7-15" value="Валидация" style="html=1;align=left;spacingLeft=2;endArrow=block;rounded=0;edgeStyle=orthogonalEdgeStyle;curved=0;rounded=0;" edge="1" parent="rCTuz_Q_YtmbwdRgpNt7-5">
          <mxGeometry relative="1" as="geometry">
            <mxPoint x="49" y="83" as="sourcePoint" />
            <Array as="points">
              <mxPoint x="79" y="113" />
            </Array>
            <mxPoint x="54" y="113" as="targetPoint" />
          </mxGeometry>
        </mxCell>
        <mxCell id="rCTuz_Q_YtmbwdRgpNt7-40" value="Валидация" style="html=1;align=left;spacingLeft=2;endArrow=block;rounded=0;edgeStyle=orthogonalEdgeStyle;curved=0;rounded=0;" edge="1" target="rCTuz_Q_YtmbwdRgpNt7-39" parent="rCTuz_Q_YtmbwdRgpNt7-5">
          <mxGeometry relative="1" as="geometry">
            <mxPoint x="49" y="460" as="sourcePoint" />
            <Array as="points">
              <mxPoint x="79" y="490" />
            </Array>
          </mxGeometry>
        </mxCell>
        <mxCell id="rCTuz_Q_YtmbwdRgpNt7-39" value="" style="html=1;points=[[0,0,0,0,5],[0,1,0,0,-5],[1,0,0,0,5],[1,1,0,0,-5]];perimeter=orthogonalPerimeter;outlineConnect=0;targetShapes=umlLifeline;portConstraint=eastwest;newEdgeStyle={&quot;curved&quot;:0,&quot;rounded&quot;:0};" vertex="1" parent="rCTuz_Q_YtmbwdRgpNt7-5">
          <mxGeometry x="44" y="480" width="10" height="40" as="geometry" />
        </mxCell>
        <mxCell id="rCTuz_Q_YtmbwdRgpNt7-62" value="" style="shape=umlDestroy;whiteSpace=wrap;html=1;strokeWidth=3;targetShapes=umlLifeline;" vertex="1" parent="rCTuz_Q_YtmbwdRgpNt7-5">
          <mxGeometry x="35" y="900" width="30" height="30" as="geometry" />
        </mxCell>
        <mxCell id="rCTuz_Q_YtmbwdRgpNt7-7" value="Вход в систему" style="text;html=1;align=center;verticalAlign=middle;resizable=0;points=[];autosize=1;strokeColor=none;fillColor=none;" vertex="1" parent="1">
          <mxGeometry x="190" y="108" width="110" height="30" as="geometry" />
        </mxCell>
        <mxCell id="rCTuz_Q_YtmbwdRgpNt7-25" value="frame" style="shape=umlFrame;whiteSpace=wrap;html=1;pointerEvents=0;" vertex="1" parent="1">
          <mxGeometry x="100" y="230" width="520" height="200" as="geometry" />
        </mxCell>
        <mxCell id="rCTuz_Q_YtmbwdRgpNt7-54" value="loop=5" style="shape=umlFrame;whiteSpace=wrap;html=1;pointerEvents=0;" vertex="1" parent="1">
          <mxGeometry x="670" y="680" width="220" height="80" as="geometry" />
        </mxCell>
        <mxCell id="rCTuz_Q_YtmbwdRgpNt7-55" value="alt" style="shape=umlFrame;whiteSpace=wrap;html=1;pointerEvents=0;" vertex="1" parent="1">
          <mxGeometry x="90" y="590" width="830" height="350" as="geometry" />
        </mxCell>
        <mxCell id="rCTuz_Q_YtmbwdRgpNt7-56" style="edgeStyle=orthogonalEdgeStyle;rounded=0;orthogonalLoop=1;jettySize=auto;html=1;curved=0;dashed=1;" edge="1" parent="1">
          <mxGeometry relative="1" as="geometry">
            <mxPoint x="760" y="850" as="sourcePoint" />
            <mxPoint x="380" y="850" as="targetPoint" />
            <Array as="points">
              <mxPoint x="480" y="850" />
              <mxPoint x="480" y="850" />
            </Array>
          </mxGeometry>
        </mxCell>
        <mxCell id="rCTuz_Q_YtmbwdRgpNt7-57" value="Деньги не были списаны" style="edgeLabel;html=1;align=center;verticalAlign=middle;resizable=0;points=[];" vertex="1" connectable="0" parent="rCTuz_Q_YtmbwdRgpNt7-56">
          <mxGeometry x="-0.1907" y="2" relative="1" as="geometry">
            <mxPoint x="-35" y="-2" as="offset" />
          </mxGeometry>
        </mxCell>
        <mxCell id="rCTuz_Q_YtmbwdRgpNt7-58" style="edgeStyle=orthogonalEdgeStyle;rounded=0;orthogonalLoop=1;jettySize=auto;html=1;curved=0;dashed=1;" edge="1" parent="1">
          <mxGeometry relative="1" as="geometry">
            <mxPoint x="379.5" y="890" as="sourcePoint" />
            <mxPoint x="120" y="891" as="targetPoint" />
            <Array as="points">
              <mxPoint x="380" y="891" />
            </Array>
          </mxGeometry>
        </mxCell>
        <mxCell id="rCTuz_Q_YtmbwdRgpNt7-59" value="Платеж НЕ совершен" style="edgeLabel;html=1;align=center;verticalAlign=middle;resizable=0;points=[];" vertex="1" connectable="0" parent="rCTuz_Q_YtmbwdRgpNt7-58">
          <mxGeometry x="0.2068" y="-2" relative="1" as="geometry">
            <mxPoint x="25" as="offset" />
          </mxGeometry>
        </mxCell>
      </root>
    </mxGraphModel>
  </diagram>
</mxfile>
